<svg xmlns="http://www.w3.org/2000/svg" xmlns:xlink="http://www.w3.org/1999/xlink" contentStyleType="text/css" data-diagram-type="CLASS" height="268px" preserveAspectRatio="none" style="width:371px;height:268px;background:#FFFFFF;" version="1.1" viewBox="0 0 371 268" width="371px" zoomAndPan="magnify"><title>Domain Model &#8212; flight-search-service</title><defs/><g><g class="title" data-source-line="3"><text fill="#000000" font-family="sans-serif" font-size="14" font-weight="bold" lengthAdjust="spacing" textLength="282.3721" x="40.6914" y="23.5352">Domain Model &#8212; flight-search-service</text></g><!--class Flight--><g class="entity" data-entity="Flight" data-source-line="9" data-uid="ent0002" id="entity_Flight"><rect fill="#F1F1F1" height="204.8828" rx="2.5" ry="2.5" style="stroke:#181818;stroke-width:0.5;" width="225.4316" x="72.8774" y="49.4883"/><ellipse cx="162.2163" cy="65.4883" fill="#ADD1B2" rx="11" ry="11" style="stroke:#181818;stroke-width:1;"/><path d="M164.6895,71.6313 Q164.1084,71.9302 163.4692,72.0796 Q162.8301,72.229 162.1245,72.229 Q159.6177,72.229 158.2979,70.5771 Q156.978,68.9253 156.978,65.8042 Q156.978,62.6748 158.2979,61.0229 Q159.6177,59.3711 162.1245,59.3711 Q162.8301,59.3711 163.4775,59.5205 Q164.125,59.6699 164.6895,59.9688 L164.6895,62.6914 Q164.0586,62.1104 163.4651,61.8406 Q162.8716,61.5708 162.2407,61.5708 Q160.896,61.5708 160.2112,62.6375 Q159.5264,63.7041 159.5264,65.8042 Q159.5264,67.896 160.2112,68.9626 Q160.896,70.0293 162.2407,70.0293 Q162.8716,70.0293 163.4651,69.7595 Q164.0586,69.4897 164.6895,68.9087 Z " fill="#000000"/><text fill="#000000" font-family="sans-serif" font-size="14" lengthAdjust="spacing" textLength="38.2539" x="182.7163" y="70.7793">Flight</text><line style="stroke:#181818;stroke-width:0.5;" x1="73.8774" x2="297.3091" y1="81.4883" y2="81.4883"/><text fill="#000000" font-family="sans-serif" font-size="14" lengthAdjust="spacing" textLength="66.1172" x="78.8774" y="99.0234">id : String</text><text fill="#000000" font-family="sans-serif" font-size="14" lengthAdjust="spacing" textLength="143.5957" x="78.8774" y="115.5117">flightNumber : String</text><text fill="#000000" font-family="sans-serif" font-size="14" lengthAdjust="spacing" textLength="95.3477" x="78.8774" y="132">airline : String</text><text fill="#000000" font-family="sans-serif" font-size="14" lengthAdjust="spacing" textLength="93.0986" x="78.8774" y="148.4883">origin : String</text><text fill="#000000" font-family="sans-serif" font-size="14" lengthAdjust="spacing" textLength="129.2813" x="78.8774" y="164.9766">destination : String</text><text fill="#000000" font-family="sans-serif" font-size="14" lengthAdjust="spacing" textLength="213.4316" x="78.8774" y="181.4648">departureTime : LocalDateTime</text><text fill="#000000" font-family="sans-serif" font-size="14" lengthAdjust="spacing" textLength="189.3555" x="78.8774" y="197.9531">arrivalTime : LocalDateTime</text><text fill="#000000" font-family="sans-serif" font-size="14" lengthAdjust="spacing" textLength="122.0283" x="78.8774" y="214.4414">price : BigDecimal</text><text fill="#000000" font-family="sans-serif" font-size="14" lengthAdjust="spacing" textLength="111.5488" x="78.8774" y="230.9297">currency : String</text><text fill="#000000" font-family="sans-serif" font-size="14" lengthAdjust="spacing" textLength="127.4219" x="78.8774" y="247.418">seatsAvailable : int</text></g><g class="footer" data-source-line="4"><text fill="#888888" font-family="sans-serif" font-size="10" lengthAdjust="spacing" textLength="363.7549" x="0" y="258.1563">Generated via reflection from domain/*.java by DomainModelExtractorTest</text></g><!--SRC=[TP1DJiGm34RtEONP8l6pPZUeW920pSm5tDHjpJX9vRWL1I5n24x8IKWBYx9W5VavUVdiaq6n2mY2SneDSY33YCuPcn1KAI17U4mD2NnzV48htFLsbWdLz-NGYJsvDYKZXJkAf6ZKmCG8IgsGDquHMaq1cjLrSNh-Z1D2FV_AL_VDYobwItgWRCxrt11G66o6GA4cpIuVEGwe6C0BvhmpKwv7etkVufvV2IwTMpjmkqQ4DmV03Lp1ljoCNQb-iZ-DYt3BaLKuqXObvQxClI5D2SOHrt7-u1BAHgK3XyNma3nALNQmr8jRbIUKVxg3bkqLVirTHPu3Ie5-LANev-qtPT-MTnEoO2tB2uxctftx1W00]--></g></svg>